Coordinates
version=1
nRows=10
nColumns=28
inDegrees=yes

Units are S.I. units (second, meters, Newtons, ...)
Angles are in degrees.

endheader
time	pelvis_tilt	pelvis_list	pelvis_rotation	pelvis_tx	pelvis_ty	pelvis_tz	hip_flexion_r	hip_adduction_r	hip_rotation_r	knee_angle_r	ankle_angle_r	subtalar_angle_r	mtp_angle_r	hip_flexion_l	hip_adduction_l	hip_rotation_l	knee_angle_l	socket_flexion	socket_adduction	socket_rotation	socket_tx	socket_ty	socket_tz	foot_flex	lumbar_extension	lumbar_bending	lumbar_rotation
      0.00000000	     -0.53975317	     -5.68141446	     -8.75190841	     -0.87595335	      0.99173315	      0.26965582	    -24.67101760	      7.31261550	      2.31987656	     -3.26844251	     11.55731236	     -4.60289917	      9.52018982	     24.89226314	    -10.77694973	      9.10599006	      4.75111185	      5.99655440	      0.00000000	      0.00000000	      0.00000000	      0.00000000	      0.00000000	     -0.51417204	    -11.12150467	      4.47374428	     10.37072811
      0.00416667	     -0.60284184	     -5.71539305	     -8.68584287	     -0.87043256	      0.99116126	      0.26927992	    -24.78803713	      7.31887047	      2.37427959	     -3.47969769	     11.51652978	     -4.60539225	      9.51753782	     24.74018385	    -10.69508697	      9.10443618	      4.73901074	      5.96299173	      0.00000000	      0.00000000	      0.00000000	      0.00000000	      0.00000000	     -0.58318988	    -10.97675141	      4.51900703	     10.37367055
      0.00833333	     -0.61635571	     -5.76940559	     -8.83289582	     -0.86498523	      0.99082249	      0.26914754	    -24.67040731	      7.24940500	      2.25853993	     -4.26325335	     11.31385856	     -4.71398902	      9.53155997	     24.33638612	    -10.74760192	      8.98056532	      5.13155481	      6.13355729	      0.00000000	      0.00000000	      0.00000000	      0.00000000	      0.00000000	     -0.95460146	    -10.98038979	      4.56242757	     10.40086263
      0.01250000	     -0.68507645	     -5.79446365	     -8.75481224	     -0.85905439	      0.99023160	      0.26872216	    -24.78411147	      7.24988180	      2.33617469	     -4.49969260	     11.26470507	     -4.70259163	      9.53151324	     24.16732806	    -10.64645280	      9.00975380	      5.12718741	      6.11325375	      0.00000000	      0.00000000	      0.00000000	      0.00000000	      0.00000000	     -1.04526068	    -10.82242897	      4.60095286	     10.40877739
      0.01666667	     -0.74339046	     -5.80391763	     -8.79286916	     -0.85325872	      0.98978759	      0.26845953	    -24.68944844	      7.18811906	      2.31543018	     -5.16177119	     11.01863925	     -4.76024131	      9.50999819	     23.89587320	    -10.60671766	      9.10059630	      5.33969049	      6.17362151	      0.00000000	      0.00000000	      0.00000000	      0.00000000	      0.00000000	     -1.54204985	    -10.76772619	      4.57713298	     10.40235126
      0.02083333	     -0.81423767	     -5.83301067	     -8.70766187	     -0.84697999	      0.98924402	      0.26801299	    -24.78988817	      7.18986652	      2.37288082	     -5.43601313	     10.95871302	     -4.76141798	      9.50851835	     23.69794927	    -10.50305994	      9.11532855	      5.34689822	      6.16974977	      0.00000000	      0.00000000	      0.00000000	      0.00000000	      0.00000000	     -1.60192966	    -10.58790257	      4.63337563	     10.41008580
      0.02500000	     -0.95886513	     -5.81810131	     -8.95445068	     -0.84064141	      0.98872226	      0.26806270	    -24.40901439	      7.02105518	      2.09882736	     -6.52416787	     10.70106681	     -4.69937829	      9.68769752	     23.11878528	    -10.58314454	      8.99097188	      6.44477308	      6.81738572	      0.00000000	      0.00000000	      0.00000000	      0.00000000	      0.00000000	     -1.94313526	    -10.39568798	      4.59661743	     10.54857059
      0.02916667	     -1.01393449	     -5.80806947	     -8.92645632	     -0.83432881	      0.98833722	      0.26770842	    -24.40752360	      6.96319833	      2.15910996	     -7.01299445	     10.51112055	     -4.68670858	      9.69813414	     22.85272335	    -10.48483383	      9.09525230	      6.54702707	      6.83386975	      0.00000000	      0.00000000	      0.00000000	      0.00000000	      0.00000000	     -2.26229807	    -10.28354886	      4.56196924	     10.55483783
      0.03333333	     -1.06397493	     -5.79095929	     -8.93743257	     -0.82797256	      0.98799015	      0.26738795	    -24.30616584	      6.87646324	      2.06489970	     -7.70481797	     10.22564715	     -4.75306588	      9.71244788	     22.52046891	    -10.39555668	      9.13102173	      6.78080191	      6.97592005	      0.00000000	      0.00000000	      0.00000000	      0.00000000	      0.00000000	     -2.54287511	    -10.16654599	      4.53831608	     10.55587302
      0.03750000	     -1.15690307	     -5.69528910	     -9.06280751	     -0.82121254	      0.98760596	      0.26732375	    -24.13512221	      6.65968989	      1.92586854	     -8.44677379	      9.98920927	     -4.52383033	     10.22270725	     22.00717048	    -10.30933432	      9.00932507	      7.49569614	      7.40047316	      0.00000000	      0.00000000	      0.00000000	      0.00000000	      0.00000000	     -2.75455925	     -9.94581099	      4.39382277	     10.72230946
